P2
24 7
255
15 33 42 42 33 15 30 67 85 85 67 30 45 101 128 128 101 45 60 134 170 170 134 60 33 30 15 0 21 21 67 60 30 0 42 42 101 90 45 0 64 64 134 120 60 60 120 134 42 21 21 15 30 15 85 42 42 30 60 30 128 64 64 45 90 45 170 85 85 85 85 170 42 21 21 21 21 0 85 42 42 42 42 0 128 64 64 64 64 0 170 85 85 60 120 134 42 15 45 33 15 0 85 42 42 30 60 30 128 64 64 45 90 45 170 60 180 170 134 60 33 21 33 0 0 0 67 60 30 0 42 42 101 90 45 0 64 64 134 85 134 0 0 0 15 21 15 0 0 0 30 67 85 85 67 30 45 101 128 128 101 45 60 85 60 0 0 0 
